<?xml version="1.0" encoding="UTF-8"?>
<svg width="64px" height="64px" viewBox="0 0 64 64" version="1.1" xmlns="http://www.w3.org/2000/svg" xmlns:xlink="http://www.w3.org/1999/xlink">
    <title>ic_score</title>
    <defs>
        <path d="M30.8105665,1.41741793 L37.3467794,19.1619742 L37.3467794,19.1619742 L55.2533745,19.1619742 C56.5157396,19.1619742 57.5390888,20.1853233 57.5390888,21.4476885 C57.5390888,22.1652117 57.2021572,22.8410926 56.6291692,23.2729771 L42.0750666,34.2429992 L42.0750666,34.2429992 L47.5483101,51.5793587 C47.9283597,52.7831561 47.2605801,54.0671177 46.0567828,54.4471673 C45.380246,54.660756 44.6428827,54.5480881 44.0609987,54.1422149 L28.7208473,43.442219 L28.7208473,43.442219 L14.0231885,54.3867481 C13.0106995,55.1406923 11.5787225,54.9311004 10.8247783,53.9186115 C10.3960014,53.3427971 10.2626749,52.5989854 10.4647557,51.9100913 L15.6340423,34.2879765 L15.6340423,34.2879765 L0.703821004,23.2878821 C-0.312489873,22.5390978 -0.529363001,21.1082054 0.219421317,20.0918945 C0.650235903,19.507158 1.33331058,19.1619742 2.05961494,19.1619742 L19.9932979,19.1619742 L19.9932979,19.1619742 L26.520562,1.4183347 C26.9563883,0.233589498 28.2701211,-0.373529223 29.4548663,0.0622970808 C30.0834915,0.293546284 30.5790486,0.788891654 30.8105665,1.41741793 Z" id="path-1"></path>
    </defs>
    <g id="ic_score" stroke="none" stroke-width="1" fill="none" fill-rule="evenodd" opacity="0.5">
        <g id="ic/favourites/ic_favourites">
            <g id="symbol/frame/symbol_grid24"></g>
            <g id="star" transform="translate(3.333333, 3.333333)">
                <mask id="mask-2" fill="white">
                    <use xlink:href="#path-1"></use>
                </mask>
                <g id="Stroke-161-Copy-2" fill-rule="nonzero"></g>
                <g id="color/light/#000000" mask="url(#mask-2)" fill="#000000">
                    <g transform="translate(-3.333333, -3.333333)" id="color/#000000">
                        <rect x="0" y="0" width="64" height="64"></rect>
                    </g>
                </g>
            </g>
        </g>
    </g>
</svg>